# xmcd
#
# Track frame offsets:
#	150
#	15719
#	33948
#	51801
#	69286
#	87924
#	102787
#	117002
#	134015
#	150651
#	167558
#	181221
#	196100
#	210794
#	227142
#	249108
#	265800
#	283065
#	305807
#
# Disc length: 4326 seconds
#
# Revision: 2
# Processed by: cddbd v1.5.1PL0 Copyright (c) Steve Scherf et al.
# Submitted via: audiograbber 1.83.01
#
DISCID=f410e413
DTITLE=Various Artist - RPM RC78
DYEAR=2003
DGENRE=Country
TTITLE0=Toby Keith w Willie Nelson - Beer For My Horses
TTITLE1=Brooks and Dunn - Red Dirt Road (Single Edit)
TTITLE2=Garth Brooks - Why Ain't I Running (Edit)
TTITLE3=Travis Tritt - Country Ain't Country (Radio Edit)
TTITLE4=Shania Twain - Forever And For Always
TTITLE5=George Strait  - Tell Me Something Bad About Tulsa
TTITLE6=Sammy Kershaw - I Want My Money Back 
TTITLE7=Brad Paisley - Celebrity (Single Edit)
TTITLE8=Jo Dee Mesinna - Was That My Life 
TTITLE9=Aaron Tippin - Love Like There's No Tomorrow 
TTITLE10=Tracy Byrd f Andy Griggs, Montgomery Gentry and Blake Shelton - Truth Ab
TTITLE10=out Men, The 
TTITLE11=Brian McComas - 99.9% Sure (I've Never Been Here Before)
TTITLE12=Carolyn Dawn Johnson - One Day Closer To You 
TTITLE13=Pin Monkey - I Drove All Night 
TTITLE14=Craig Morgan - Almost Home 
TTITLE15=Vince Gill - Someday
TTITLE16=Mark Wills - When You Think Of Me 
TTITLE17=Kid Rock f Sheryl Crow - Picture (Amended Version)
TTITLE18=Warren Brothers - Hey, Mr. President 
EXTD=
EXTT0=
EXTT1=
EXTT2=
EXTT3=
EXTT4=
EXTT5=
EXTT6=
EXTT7=
EXTT8=
EXTT9=
EXTT10=
EXTT11=
EXTT12=
EXTT13=
EXTT14=
EXTT15=
EXTT16=
EXTT17=
EXTT18=
PLAYORDER=
